<svg width="800" height="800" viewBox="0 0 800 800" xmlns="http://www.w3.org/2000/svg" xmlns:xlink="http://www.w3.org/1999/xlink">
  <defs>
    <filter id="paperTexture" x="0%" y="0%" width="100%" height="100%">
      <feTurbulence type="fractalNoise" baseFrequency="0.04" numOctaves="5" result="noise" />
      <feDiffuseLighting in="noise" lighting-color="#f4e4c1" surfaceScale="2">
        <feDistantLight azimuth="45" elevation="60" />
      </feDiffuseLighting>
      <feComposite operator="in" in2="SourceGraphic" />
      <feBlend mode="multiply" in="SourceGraphic" result="paper" />
      <feTurbulence type="turbulence" baseFrequency="0.01" numOctaves="3" seed="50" result="stainsNoise"/>
       <feColorMatrix type="matrix" in="stainsNoise" values="1 0 0 0 0 0 1 0 0 0 0 0 1 0 0 0 0 0 0.3 -0.1" result="stains"/>
       <feBlend mode="multiply" in="paper" in2="stains" result="agedPaper"/>
      <feColorMatrix type="matrix" values="0.393 0.769 0.189 0 0 0.349 0.686 0.168 0 0 0.272 0.534 0.131 0 0 0 0 0 1 0" in="agedPaper"/>
    </filter>

    <filter id="inkBorder">
      <feTurbulence type="fractalNoise" baseFrequency="0.1" numOctaves="3" result="noise" />
      <feDisplacementMap in="SourceGraphic" in2="noise" scale="3" xChannelSelector="R" yChannelSelector="G" />
      <feMorphology operator="erode" radius="0.5" />
      <feColorMatrix type="matrix" values="0 0 0 0 0.3 0 0 0 0 0.2 0 0 0 0 0.1 0 0 0 1 0" />
    </filter>

     <pattern id="grid" width="100" height="100" patternUnits="userSpaceOnUse">
      <path d="M 100 0 L 0 0 0 100" fill="none" stroke="#8b7355" stroke-width="0.5" stroke-dasharray="5,5"/>
    </pattern>
  </defs>

  <rect width="100%" height="100%" fill="#fdf5e6" filter="url(#paperTexture)" />
  <rect width="100%" height="100%" fill="url(#grid)" opacity="0.3" pointer-events="none"/>

  <text x="400" y="50" font-family="serif" font-size="36" font-weight="bold" fill="#4a3b2a" text-anchor="middle" filter="url(#inkBorder)">MAPA DO BRASIL</text>
  <text x="400" y="80" font-family="cursive" font-size="24" fill="#6b543e" text-anchor="middle">Viagem Vintage</text>

  <g transform="translate(100, 700)" opacity="0.8">
    <path d="M 0 -40 L 10 -10 L 40 0 L 10 10 L 0 40 L -10 10 L -40 0 L -10 -10 Z" fill="#4a3b2a" stroke="#6b543e" stroke-width="2"/>
    <text x="0" y="-50" font-family="serif" font-size="14" fill="#4a3b2a" text-anchor="middle">N</text>
  </g>

  <g transform="translate(50, 100) scale(0.9)" stroke="#4a3b2a" stroke-width="1.5" filter="url(#inkBorder)" stroke-linejoin="round" stroke-linecap="round">
    <path id="RR" d="M 220 50 L 280 60 L 270 110 L 210 100 Z" fill="#e0d2b4" /> <text x="245" y="85" font-family="serif" font-size="12" fill="#332211" text-anchor="middle">RR</text>
    <path id="AP" d="M 350 70 L 400 80 L 390 130 L 340 120 Z" fill="#d8c8a8" /> <text x="370" y="105" font-family="serif" font-size="12" fill="#332211" text-anchor="middle">AP</text>
    <path id="AM" d="M 80 100 L 210 100 L 270 110 L 260 200 L 150 220 L 70 180 Z" fill="#d2c2a2" /> <text x="170" y="160" font-family="serif" font-size="14" fill="#332211" text-anchor="middle">AMAZONAS</text>
    <path id="PA" d="M 270 110 L 390 130 L 380 230 L 260 200 Z" fill="#c8b898" /> <text x="330" y="170" font-family="serif" font-size="14" fill="#332211" text-anchor="middle">PARÁ</text>
    <path id="AC" d="M 30 180 L 80 170 L 70 220 L 20 210 Z" fill="#e0d2b4" /> <text x="50" y="200" font-family="serif" font-size="12" fill="#332211" text-anchor="middle">AC</text>
    <path id="RO" d="M 150 220 L 220 210 L 210 280 L 140 270 Z" fill="#d8c8a8" /> <text x="180" y="250" font-family="serif" font-size="12" fill="#332211" text-anchor="middle">RO</text>
    <path id="TO" d="M 330 200 L 380 190 L 370 290 L 320 280 Z" fill="#d2c2a2" /> <text x="350" y="245" font-family="serif" font-size="12" fill="#332211" text-anchor="middle">TO</text>

    <path id="MA" d="M 390 130 L 450 140 L 440 210 L 380 190 Z" fill="#c8b898" /> <text x="420" y="175" font-family="serif" font-size="12" fill="#332211" text-anchor="middle">MA</text>
    <path id="PI" d="M 440 210 L 490 200 L 480 270 L 430 260 Z" fill="#e0d2b4" /> <text x="465" y="240" font-family="serif" font-size="12" fill="#332211" text-anchor="middle">PI</text>
    <path id="CE" d="M 490 200 L 540 190 L 530 230 L 480 240 Z" fill="#d8c8a8" /> <text x="515" y="220" font-family="serif" font-size="12" fill="#332211" text-anchor="middle">CE</text>
    <path id="RN" d="M 540 190 L 580 200 L 570 220 L 530 210 Z" fill="#d2c2a2" /> <text x="560" y="210" font-family="serif" font-size="10" fill="#332211" text-anchor="middle">RN</text>
    <path id="PB" d="M 530 230 L 580 220 L 570 250 L 520 260 Z" fill="#c8b898" /> <text x="555" y="245" font-family="serif" font-size="10" fill="#332211" text-anchor="middle">PB</text>
    <path id="PE" d="M 480 270 L 570 250 L 560 290 L 470 300 Z" fill="#e0d2b4" /> <text x="525" y="280" font-family="serif" font-size="12" fill="#332211" text-anchor="middle">PE</text>
    <path id="AL" d="M 540 290 L 570 280 L 560 310 L 530 320 Z" fill="#d8c8a8" /> <text x="555" y="305" font-family="serif" font-size="10" fill="#332211" text-anchor="middle">AL</text>
    <path id="SE" d="M 520 310 L 550 300 L 540 330 L 510 340 Z" fill="#d2c2a2" /> <text x="535" y="325" font-family="serif" font-size="10" fill="#332211" text-anchor="middle">SE</text>
    <path id="BA" d="M 430 260 L 510 340 L 480 420 L 390 380 Z" fill="#c8b898" /> <text x="460" y="340" font-family="serif" font-size="14" fill="#332211" text-anchor="middle">BAHIA</text>

    <path id="MT" d="M 210 280 L 320 280 L 310 400 L 200 380 Z" fill="#e0d2b4" /> <text x="265" y="340" font-family="serif" font-size="14" fill="#332211" text-anchor="middle">MATO GROSSO</text>
    <path id="GO" d="M 310 300 L 380 290 L 370 390 L 300 380 Z" fill="#d8c8a8" /> <text x="345" y="345" font-family="serif" font-size="12" fill="#332211" text-anchor="middle">GOIÁS</text>
    <path id="DF" d="M 355 340 L 375 340 L 375 360 L 355 360 Z" fill="#b0a080" /> <text x="365" y="355" font-family="serif" font-size="8" fill="#332211" text-anchor="middle">DF</text>
    <path id="MS" d="M 200 380 L 300 380 L 290 480 L 190 460 Z" fill="#d2c2a2" /> <text x="250" y="430" font-family="serif" font-size="12" fill="#332211" text-anchor="middle">MS</text>

    <path id="MG" d="M 370 390 L 480 420 L 460 500 L 360 480 Z" fill="#c8b898" /> <text x="420" y="450" font-family="serif" font-size="14" fill="#332211" text-anchor="middle">MINAS GERAIS</text>
    <path id="ES" d="M 480 420 L 510 430 L 500 470 L 470 460 Z" fill="#e0d2b4" /> <text x="495" y="450" font-family="serif" font-size="10" fill="#332211" text-anchor="middle">ES</text>
    <path id="RJ" d="M 440 490 L 480 480 L 470 510 L 430 520 Z" fill="#d8c8a8" /> <text x="460" y="505" font-family="serif" font-size="10" fill="#332211" text-anchor="middle">RJ</text>
    <path id="SP" d="M 300 480 L 440 490 L 420 560 L 290 540 Z" fill="#d2c2a2" /> <text x="370" y="520" font-family="serif" font-size="14" fill="#332211" text-anchor="middle">SÃO PAULO</text>

    <path id="PR" d="M 290 540 L 420 560 L 400 610 L 280 590 Z" fill="#c8b898" /> <text x="350" y="580" font-family="serif" font-size="14" fill="#332211" text-anchor="middle">PARANÁ</text>
    <path id="SC" d="M 300 600 L 400 610 L 390 650 L 290 640 Z" fill="#e0d2b4" /> <text x="350" y="630" font-family="serif" font-size="12" fill="#332211" text-anchor="middle">SC</text>
    <path id="RS" d="M 270 630 L 380 650 L 360 730 L 250 700 Z" fill="#d8c8a8" /> <text x="320" y="680" font-family="serif" font-size="14" fill="#332211" text-anchor="middle">RIO GRANDE DO SUL</text>
  </g>

  <path d="M 600 100 Q 650 150 700 100 T 750 150" stroke="#a03030" stroke-width="2" stroke-dasharray="10,5" fill="none" opacity="0.6" filter="url(#inkBorder)"/>
  <text x="680" y="130" font-family="cursive" font-size="14" fill="#a03030" opacity="0.8" transform="rotate(15 680 130)">Rota da Aventura</text>

  <g transform="translate(650, 600)" opacity="0.7">
    <circle cx="0" cy="0" r="40" fill="none" stroke="#6b543e" stroke-width="2"/>
    <text x="0" y="5" font-family="serif" font-size="10" fill="#6b543e" text-anchor="middle" transform="rotate(-15)">CARIMBO DE VIAGEM</text>
    <text x="0" y="20" font-family="serif" font-size="8" fill="#6b543e" text-anchor="middle" transform="rotate(-15)">BRASIL - VINTAGE</text>
  </g>
</svg>
